<svg width="836" height="202" viewBox="0 0 836 202" fill="none" xmlns="http://www.w3.org/2000/svg">
<path d="M804.5 26.0006V200.801H773V26.0006H741.5V1.10059H835.9V26.0006H804.5Z" fill="#F1881D"/>
<path d="M632.801 200.801V1.10059H727.101V26.0006H664.201V84.3006H703.601V109.301H664.301L664.201 175.901H727.101V200.801H632.801Z" fill="#F1881D"/>
<path d="M523 200.801V1.10059H617.3V26.0006H554.4V84.3006H593.7V109.301H554.4V175.901H617.3V200.801H523Z" fill="#F1881D"/>
<path d="M411.801 1.10059H471.301C494.501 1.10059 506.101 12.5006 506.101 35.3006V84.5006C506.101 101.901 500.101 113.001 488.101 117.601L509.301 200.801H480.501L460.601 120.201H443.401V200.801H411.901V1.10059H411.801ZM443.301 97.3006H462.101C471.201 97.3006 474.801 92.7006 474.801 83.0006V39.3006C474.801 29.7006 471.301 25.9006 462.201 25.9006H443.201V97.3006H443.301Z" fill="#F1881D"/>
<path d="M367.099 26.0006V200.801H335.599V26.0006H304.199V1.10059H398.499V26.0006H367.099Z" fill="#F1881D"/>
<path d="M263.499 51.0005L263.599 37.3005C263.699 29.3005 259.499 26.0005 250.499 25.9005H245.699C236.899 25.8005 232.599 29.7005 232.599 37.7005L232.299 69.5005C232.299 73.2005 232.799 76.4005 234.599 77.7005C236.299 79.0005 239.099 80.7005 242.899 82.8005L272.199 96.7005C278.599 99.9005 283.199 102.4 285.899 104.2C288.599 106 290.699 108.1 292.099 110.7C293.599 113.2 294.299 118 294.199 125.1L293.899 167.7C293.699 190.2 281.099 201.3 256.199 201L237.099 200.8C212.299 200.6 200.099 188.2 200.299 163.7V150.5L231.399 150.8L231.499 164.5C231.399 172.3 235.899 175.9 245.099 176H250.499C258.699 176.1 262.499 172.9 262.599 165.1L262.899 131.1C262.899 127.4 262.399 125 260.699 123.7C258.999 122.4 256.199 120.7 252.299 118.6L222.999 103.9C216.599 100.9 211.899 98.3005 208.999 96.3005C206.099 94.2005 203.999 91.6005 202.799 88.3005C201.499 85.1005 200.899 80.8005 200.999 75.6005L201.299 34.7005C201.499 11.9005 213.899 0.60046 238.699 0.80046L258.099 1.00046C282.899 1.20046 295.099 12.8005 294.999 35.6005L294.899 51.3005L263.499 51.0005Z" fill="#F1881D"/>
<path d="M189.301 199.001H160.901L144.401 123.601H143.801L124.001 199.001H96.8008L124.601 98.8008L96.8008 0.800781H125.401L143.801 73.9008H144.401L162.701 0.800781H189.901L163.701 98.8008L189.301 199.001Z" fill="#2C303A"/>
<path d="M69.7 83.4008V108.601H31V199.001H0V0.800781H80.7L87.6 25.5008H31V83.4008H69.7Z" fill="#2C303A"/>
</svg>
